<?xml version="1.0" encoding="UTF-8"?><svg id="Ebene_1" xmlns="http://www.w3.org/2000/svg" width="138.22" height="30.16" xmlns:xlink="http://www.w3.org/1999/xlink" viewBox="0 0 138.22 30.16"><defs><style>.cls-1{fill:#fff;}.cls-2{clip-path:url(#clippath);}.cls-3{fill:none;}</style><clipPath id="clippath"><rect class="cls-3" y="0" width="138.22" height="30.16"/></clipPath></defs><g class="cls-2"><path class="cls-1" d="M7.42,16.78H3.19c-1.78,0-2.87-1.06-3.14-2.69C0,13.79,0,13.58,0,13.58c0-.12,.1-.22,.22-.22H7.1L.06,6.32c-.53-.53,2.63-2.45,4.77-.31l2.96,2.97c.3,.3,.78,.32,1.1,.06v-1.1c-.85-.12-1.48-.91-1.48-1.77,0-.12,.1-.22,.22-.22h2.73c-.1-.59-.62-1.04-1.24-1.04h-1.48c-.94,0-1.71-.76-1.71-1.71,0-.12,.1-.22,.22-.22h2.76c.11-.84,.83-1.48,1.69-1.48h1.24V.25c0-.25,.2-.33,.38-.16l1.44,1.4c1.72,.05,3.11,1.44,3.11,3.18v1.41c1.22,1.3,1.22,3.33,0,4.63,0,3.84,0,9,0,10.09,.84,.11,1.48,.82,1.48,1.69v4.45s-.05,.14-.07,.16l-2.97,2.97s-.14,.07-.16,.07h-4.45c-.12,0-.22-.11-.22-.22,0-1.66,1.36-3.06,3-3.18-.12-1.39-1.35-2.53-2.77-2.53-.7,0-1.26,.57-1.26,1.26v1.48s-.05,.14-.06,.16l-3.01,2.99s-.13,.06-.16,.06H1.66c-.12,0-.22-.1-.22-.22,0-1.67,1.41-3.09,3.05-3.21l-.03-2.75c0-1.69,1.32-3.07,2.97-3.18v-4.01Z"/><path class="cls-1" d="M138.22,21.25v-.52c-1.16-.12-1.28-.2-1.28-1.56v-3.86c0-1.92-.98-3.02-2.58-3.02-.58,0-1.1,.24-1.66,.6-.5,.34-.94,.64-1.34,.94v-1.6c-.88,.4-1.82,.64-2.78,.82v.46c1.08,.2,1.2,.26,1.2,1.54v4.12c0,1.32-.1,1.42-1.46,1.56v.52h4.34v-.52c-1.18-.12-1.3-.2-1.3-1.56v-4.68c.6-.52,1.38-1.02,2.18-1.02,1.34,0,1.82,.9,1.82,2.28v3.32c0,1.38-.14,1.54-1.32,1.66v.52h4.18Zm-11.1,0v-.52c-1.28-.12-1.42-.24-1.42-1.6v-6.88c-.86,.36-1.82,.62-2.84,.78v.48c1.2,.18,1.26,.28,1.26,1.5v4.12c0,1.36-.14,1.48-1.4,1.6v.52h4.4Zm-2.34-13.02c-.52,0-1,.46-1,1.06,0,.52,.48,1,1,1,.58,0,1.02-.48,1.02-1.02,0-.58-.44-1.04-1-1.04h-.02Zm-3.6,13.02v-.52c-1.28-.12-1.44-.24-1.44-1.56V7.01c-.68,.24-1.92,.58-2.96,.7v.48c1.26,.12,1.38,.16,1.38,1.52v9.46c0,1.32-.18,1.44-1.44,1.56v.52h4.46Zm-8.92-6.84v-2.16c-.96,.4-1.84,.64-2.82,.8v.46c1.16,.14,1.24,.22,1.24,1.54v4.14c0,1.3-.14,1.42-1.38,1.54v.52h4.6v-.52c-1.54-.12-1.64-.24-1.64-1.56v-3.64c.44-1.12,1.08-1.7,1.6-1.7,.32,0,.56,.12,.86,.4,.12,.12,.28,.14,.52,.04,.38-.18,.64-.58,.64-.98,0-.46-.48-1-1.16-1-.96,0-1.82,1.12-2.42,2.12h-.04Zm-7.9-1.38c1.1,0,1.78,.96,1.76,2,0,.28-.12,.38-.48,.38-1.16,.04-2.28,.06-3.4,.06,.3-1.6,1.2-2.44,2.1-2.44h.02Zm3.08,6.1c-.74,.68-1.48,1-2.3,1-1.4,0-2.98-1.12-3-3.84,2.4-.08,4.92-.28,5.24-.34,.38-.08,.46-.24,.46-.64,0-1.54-1.34-3.02-3-3.02h-.02c-1.02,0-2.1,.56-2.92,1.46-.82,.88-1.32,2.12-1.32,3.48,0,2.26,1.44,4.26,3.9,4.26,.62,0,2-.36,3.26-1.92l-.3-.44Zm-15.5-4.44h.9c2.44,0,3.84,.9,3.84,2.94s-1.46,2.94-3.08,2.94c-1.3,.02-1.66-.38-1.66-1.82v-4.06Zm0-.68v-3.92c0-.66,.06-.88,.26-1,.18-.12,.64-.2,1.12-.2,1.9,0,2.66,1.2,2.66,2.56,0,1.68-.92,2.56-3.1,2.56h-.94Zm3.18,.2c1.1-.32,2.7-1.1,2.7-3,0-.92-.42-1.8-1.12-2.28-.62-.44-1.5-.68-3-.68h-5.14v.56c1.6,.12,1.68,.24,1.68,1.9v8.08c0,1.66-.12,1.78-1.84,1.9v.56h4.42c1.58,0,2.9-.24,3.92-.8,1.18-.64,1.9-1.68,1.9-3.02,0-2-1.54-2.88-3.52-3.18v-.04Zm-20.36,.72v-4.94c0-.54,.06-.78,.22-.88,.16-.12,.5-.2,1.08-.2,1.5,0,2.92,.8,2.92,2.96,0,1.1-.32,1.88-1.1,2.48-.5,.42-1.16,.58-2.16,.58h-.96Zm8.38,5.96c-.44-.12-.92-.34-1.44-.94-.5-.52-.9-1.04-1.62-2.08-.6-.9-1.44-2.24-1.78-2.88,1.46-.66,2.54-1.72,2.54-3.44,0-1.2-.52-2.1-1.34-2.62-.74-.5-1.72-.68-3.18-.68h-4.96v.56c1.56,.14,1.72,.2,1.72,1.92v8.02c0,1.7-.16,1.82-1.8,1.94v.56h5.24v-.56c-1.58-.12-1.76-.26-1.76-1.94v-3.18h.64c1.02,0,1.36,.24,1.7,.8,.6,.98,1.32,2.22,2.02,3.2,.9,1.3,1.72,1.74,3.24,1.82,.22,.02,.46,.02,.7,.02l.08-.52Zm-13.02-12.64h-4.4v.56c1.56,.18,1.64,.4,1.36,1.6-.3,1.42-1.42,5.34-2.26,8.02h-.04c-1.22-3.46-2.38-6.7-3.5-10h-.58c-1.02,3.26-2.16,6.58-3.24,9.98h-.04c-.88-2.84-1.66-5.54-2.44-8.24-.3-1.02-.26-1.18,1.2-1.36v-.56h-4.86v.56c1.22,.14,1.52,.32,2.02,1.96,1.1,3.56,2.22,7.08,3.28,10.7h.62c1.02-3.24,2.14-6.44,3.26-9.98h.04c1.02,2.9,2.4,6.76,3.5,9.98h.62c1.64-5.6,2.86-9.38,3.3-10.66,.6-1.66,.78-1.82,2.16-2v-.56Zm-19.96,0h-5.22v.56c1.56,.14,1.72,.24,1.72,1.9v3.24h-6.82v-3.24c0-1.66,.16-1.78,1.68-1.9v-.56h-5.18v.56c1.64,.12,1.8,.22,1.8,1.9v8.08c0,1.68-.16,1.78-1.76,1.9v.56h5.26v-.56c-1.64-.12-1.8-.24-1.8-1.9v-3.98h6.82v3.98c0,1.68-.16,1.78-1.88,1.9v.56h5.36v-.56c-1.62-.12-1.78-.22-1.78-1.9V10.71c0-1.66,.16-1.76,1.8-1.9v-.56Z"/></g></svg>